HIERARCHY
ROOT Hips
{
	OFFSET 0.000000 0.000000 0.000000 
	CHANNELS 6 Xposition Yposition Zposition Yrotation Zrotation Xrotation 
	JOINT Lumbar
	{
		OFFSET 0.000000 0.000000 0.000000 
		CHANNELS 3 Zrotation Xrotation Yrotation
		JOINT Neck
		{
			OFFSET 0.000000 0.445665 0.000000 
			CHANNELS 3 Zrotation Xrotation Yrotation
			End Site
			{
				OFFSET 0.000000 0.227535 0.000000 
			}
		}
		JOINT RightShoulder
		{
			OFFSET 0.019635 0.377685 0.194865 
			CHANNELS 3 Zrotation Xrotation Yrotation
			JOINT RightElbow
			{
				OFFSET 0.000000 -0.243375 0.000000 
				CHANNELS 2 Zrotation Yrotation
				JOINT RightWrist
				{
					OFFSET 0.000000 -0.264825 0.000000 
					CHANNELS 2 Zrotation Xrotation
					End Site
					{
						OFFSET 0.006600 -0.176220 0.000990 
					}
				}
			}
		}
		JOINT LeftShoulder
		{
			OFFSET 0.019635 0.377685 -0.194865 
			CHANNELS 3 Zrotation Xrotation Yrotation
			JOINT LeftElbow
			{
				OFFSET 0.000000 -0.243375 0.000000 
				CHANNELS 2 Zrotation Yrotation
				JOINT LeftWrist
				{
					OFFSET 0.000000 -0.264825 0.000000 
					CHANNELS 2 Zrotation Xrotation
					End Site
					{
						OFFSET 0.006600 -0.176220 -0.000990 
					}
				}
			}
		}
	}
	JOINT RightHip
	{
		OFFSET 0.052140 -0.069960 0.075570 
		CHANNELS 3 Zrotation Xrotation Yrotation
		JOINT RightKnee
		{
			OFFSET 0.000000 -0.402270 0.000000 
			CHANNELS 1 Zrotation
			JOINT RightAnkle
			{
				OFFSET 0.000000 -0.404085 0.000000 
				CHANNELS 3 Zrotation Xrotation Yrotation
				End Site
				{
					OFFSET 0.204105 -0.089430 0.008415 
				}
			}
		}
	}
	JOINT LeftHip
	{
		OFFSET 0.052140 -0.069960 -0.075570 
		CHANNELS 3 Zrotation Xrotation Yrotation
		JOINT LeftKnee
		{
			OFFSET 0.000000 -0.402270 0.000000 
			CHANNELS 1 Zrotation
			JOINT LeftAnkle
			{
				OFFSET 0.000000 -0.404085 0.000000 
				CHANNELS 3 Zrotation Xrotation Yrotation
				End Site
				{
					OFFSET 0.204105 -0.089430 -0.008415 
				}
			}
		}
	}
}
MOTION
Frames: 14
Frame Time: 0.02
2e-05 4e-05 9e-05 22.82307 -22.41924 -7.34134 42.09411 2.78193 -3.6517 -11.07237 -2.32871 -1.03655 90.72493 -99.11432 55.63444 5.78679 105.3184 9.89759 3.9473 36.79222 108.95741 -55.63477 8.87554 -88.11315 7.85222 0.93961 37.34642 -3.49815 -8.79605 -22.27125 -6.73217 -2.26992 -3.29923 40.99193 9.22199 2.04739 -27.76167 -6.52481 2.37324 3.37959
-3e-05 3e-05 6e-05 22.83554 -22.4187 -7.33908 42.08105 2.78787 -3.64687 -11.07337 -2.32832 -1.03678 90.84383 -99.07945 55.63437 5.78682 105.32094 9.88397 3.96236 36.87474 108.90658 -55.63462 8.87512 -88.11725 7.84694 0.92781 37.34752 -3.51738 -8.85505 -22.27565 -6.73018 -2.2538 -3.29445 40.99457 9.26539 2.25912 -27.76377 -6.52245 2.35186 3.36891
-9e-05 1e-05 4e-05 22.84799 -22.41816 -7.33683 42.06802 2.79378 -3.64205 -11.07437 -2.32792 -1.03702 90.96243 -99.04469 55.63431 5.78685 105.32345 9.87038 3.97737 36.95703 108.85587 -55.63446 8.87472 -88.12136 7.84165 0.91604 37.34862 -3.53656 -8.91397 -22.28004 -6.72819 -2.23772 -3.28968 40.99722 9.30869 2.4703 -27.76585 -6.5201 2.33054 3.35826
-0.00014 -0 1e-05 22.86042 -22.41762 -7.33458 42.055 2.7997 -3.63724 -11.07536 -2.32752 -1.03726 91.08097 -99.00993 55.63424 5.78687 105.32598 9.85681 3.99239 37.03931 108.80519 -55.63431 8.8743 -88.12546 7.83638 0.90428 37.34971 -3.55574 -8.97281 -22.28442 -6.72621 -2.22165 -3.28492 40.99985 9.35196 2.68138 -27.76794 -6.51775 2.30923 3.34761
-0.00019 -1e-05 -1e-05 22.87285 -22.41707 -7.33232 42.04195 2.80564 -3.63241 -11.07635 -2.32713 -1.03749 91.19982 -98.97507 55.63417 5.7869 105.32855 9.84321 4.00744 37.12182 108.75438 -55.63416 8.87386 -88.12955 7.83112 0.89248 37.35081 -3.57494 -9.03168 -22.28881 -6.72422 -2.20554 -3.28015 41.00248 9.39533 2.89298 -27.77003 -6.51539 2.28786 3.33693
-0.00024 -3e-05 -4e-05 22.88533 -22.41656 -7.3301 42.02895 2.8115 -3.62762 -11.07737 -2.32671 -1.03773 91.3179 -98.94051 55.63411 5.78693 105.33095 9.82963 4.02237 37.20363 108.70389 -55.634 8.87355 -88.13368 7.82575 0.88077 37.35189 -3.59409 -9.09069 -22.29319 -6.72224 -2.18952 -3.2754 41.00514 9.43847 3.10326 -27.77211 -6.51305 2.26665 3.32635
-0.0003 -4e-05 -7e-05 22.89772 -22.41597 -7.32779 42.01588 2.81751 -3.62275 -11.07832 -2.32635 -1.03797 91.43733 -98.90539 55.63404 5.78695 105.33367 9.81604 4.03753 37.28676 108.65282 -55.63386 8.87295 -88.13774 7.82064 0.86891 37.35301 -3.61333 -9.14937 -22.29759 -6.72024 -2.17334 -3.27061 41.00774 9.48201 3.31593 -27.7742 -6.51067 2.24514 3.31559
-0.00035 -6e-05 -9e-05 22.91018 -22.41546 -7.32557 42.00287 2.82338 -3.61795 -11.07933 -2.32594 -1.03821 91.55563 -98.87079 55.63397 5.78698 105.33612 9.80245 4.05249 37.36868 108.60228 -55.6337 8.87266 -88.14185 7.81525 0.85718 37.3541 -3.63248 -9.20832 -22.30197 -6.71826 -2.15731 -3.26586 41.01041 9.5252 3.52648 -27.77629 -6.50833 2.2239 3.30499
-0.0004 -7e-05 -0.00012 22.92276 -22.41501 -7.32345 41.98993 2.82908 -3.61328 -11.08043 -2.32545 -1.03845 91.67217 -98.8368 55.6339 5.78701 105.33815 9.78891 4.06718 37.44913 108.55241 -55.63354 8.87261 -88.14607 7.80967 0.84563 37.35513 -3.65154 -9.26778 -22.30632 -6.71631 -2.14146 -3.26116 41.01312 9.56791 3.73422 -27.77834 -6.50603 2.20304 3.29458
-0.00046 -8e-05 -0.00015 22.93475 -22.41411 -7.32074 41.97656 2.83579 -3.60801 -11.08109 -2.32536 -1.03867 91.79768 -98.7992 55.63385 5.78703 105.34234 9.77521 4.08332 37.53809 108.49871 -55.63342 8.87076 -88.1498 7.80564 0.83307 37.35641 -3.6712 -9.32484 -22.31083 -6.71422 -2.12456 -3.25614 41.01546 9.61325 3.95747 -27.78052 -6.50348 2.18012 3.28307
-0.00051 -0.0001 -0.00016 22.9479 -22.41422 -7.31925 41.96411 2.84034 -3.60389 -11.08263 -2.32444 -1.03893 91.90499 -98.76929 55.63376 5.78707 105.34213 9.76176 4.09647 37.60906 108.45309 -55.63321 8.87295 -88.15449 7.79804 0.82266 37.35725 -3.68954 -9.38662 -22.31501 -6.71241 -2.10988 -3.25181 41.01864 9.65311 4.14838 -27.78246 -6.50145 2.16148 3.27386
-0.00054 -0.00011 -0.00012 22.96503 -22.41673 -7.32129 41.95418 2.83915 -3.60386 -11.08689 -2.32103 -1.03925 91.95515 -98.76025 55.63353 5.78717 105.32851 9.74971 4.10069 37.63052 108.42971 -55.63268 8.88434 -88.16236 7.78303 0.81809 37.356 -3.70471 -9.46479 -22.3182 -6.71137 -2.10121 -3.2494 41.02366 9.67707 4.24635 -27.78356 -6.50087 2.15501 3.27129
-0.00056 -0.00011 -6e-05 22.98317 -22.42032 -7.32452 41.94516 2.83575 -3.60482 -11.092 -2.31682 -1.03961 91.98784 -98.75898 55.63326 5.78729 105.3107 9.73781 4.10196 37.6341 108.41439 -55.63207 8.90017 -88.17109 7.76401 0.81566 37.35444 -3.71853 -9.54729 -22.32106 -6.71061 -2.09476 -3.24766 41.0296 9.69561 4.31241 -27.78443 -6.5008 2.15275 3.27098
-0.00059 -0.00012 -1e-05 23.00033 -22.42366 -7.32708 41.9357 2.8332 -3.60467 -11.09654 -2.31309 -1.03995 92.0339 -98.75434 55.63302 5.78739 105.29577 9.72533 4.10514 37.64579 108.39535 -55.63153 8.91512 -88.17908 7.74528 0.8123 37.35362 -3.73262 -9.62533 -22.32413 -6.70973 -2.08736 -3.2456 41.03545 9.71728 4.39609 -27.78553 -6.50048 2.14826 3.2694
